PathFileType	4	(X/Y/Z)	C:/Users/beibeiliu/ov580/test_trc/User3\sequence.5_training_dense_left.trc
DataRate	CameraRate	NumFrames	NumMarkers	Units	OrigDataRate	OrigDataStartFrame	OrigNumFrames
120	120	21	19	mm	120	48	119
Frame#	Time	ThumbCMC			ThumbMCP			ThumbIP			ThumbTip			IndexMCP			IndexPIP			IndexTip			MiddleMCP			MiddlePIP			MiddleTip			RingMCP			RingPIP			RingTip			PinkyMCP			PinkyPIP			PinkyTip			BackHand1			BackHand2			BackHand3	
		X0	Y0	Z0	X1	Y1	Z1	X2	Y2	Z2	X3	Y3	Z3	X4	Y4	Z4	X5	Y5	Z5	X6	Y6	Z6	X7	Y7	Z7	X8	Y8	Z8	X9	Y9	Z9	X10	Y10	Z10	X11	Y11	Z11	X12	Y12	Z12	X13	Y13	Z13	X14	Y14	Z14	X15	Y15	Z15	X16	Y16	Z16	X17	Y17	Z17	X18	Y18	Z18	
47	0.391667	-178.512	-14.6282	10.8795	-164.756	-25.0219	-10.9385	-141.01	-29.8556	-31.8695	-129.375	-37.3265	-46.3749	-195.047	-18.8986	-62.8834	-189.144	-47.5061	-58.5244	-191.26	-39.7855	-23.985	-215.903	-22.5793	-60.6875	-211.449	-54.7149	-49.5888	-209.641	-33.5849	-15.4433	-233.84	-34.0967	-53.131	-224.244	-56.4613	-38.7148	-222.352	-39.076	-7.72455	-247.174	-34.8623	-42.4679	-236.321	-54.9605	-26.19	-233.844	-34.9224	-3.27796	-241.11	6.01688	-7.76648	-239.232	7.28407	20.5484	-206.678	11.582	6.10994	
48	0.4	-181.164	-14.7063	13.8039	-165.618	-25.674	-9.26038	-141.442	-30.2509	-30.1254	-132.987	-37.5053	-49.4351	-195.308	-17.6271	-61.851	-191.893	-49.6038	-56.9823	-193.408	-41.0754	-23.9178	-217.589	-24.0505	-60.4284	-207.35	-54.6074	-48.6129	-208.076	-31.918	-15.1768	-231.598	-30.1688	-51.1086	-227.735	-57.7683	-35.4852	-218.674	-36.5494	-8.99265	-248.157	-39.6229	-43.1849	-234.343	-55.0583	-24.5257	-233.549	-38.2712	-3.4638	-243.485	6.86716	-8.11879	-242.057	5.36851	19.2927	-211.779	10.47	7.36752	
49	0.408333	-177.92	-14.1136	9.94332	-165.56	-24.2512	-9.45494	-144.67	-29.7757	-30.1887	-130.363	-36.2926	-47.9554	-195.586	-19.8485	-62.9844	-189.631	-49.643	-54.5995	-190.912	-40.4323	-24.5454	-215.619	-25.4076	-62.0979	-209.664	-54.4249	-49.4771	-213.785	-32.2413	-15.0347	-233.507	-32.8356	-52.9869	-224.234	-57.5825	-35.6462	-222.413	-39.4696	-7.65126	-247.269	-32.927	-42.0368	-233.823	-54.6212	-28.3345	-234.93	-37.7159	-0.165985	-242.343	8.17302	-11.5876	-239.531	4.70139	20.5819	-209.738	10.6565	5.35566	
50	0.416667	-179.865	-15.616	14.4931	-163.372	-24.6473	-10.0737	-145.156	-31.0333	-29.5538	-128.349	-37.0808	-45.0968	-193.301	-16.7254	-59.684	-192.599	-50.9548	-56.1506	-190.107	-42.7751	-25.1132	-215.988	-25.9129	-61.0136	-209.605	-55.4995	-49.14	-212.604	-36.1925	-16.4183	-232.441	-31.0397	-52.5982	-226.354	-58.4715	-34.9967	-221.471	-37.4583	-7.86444	-246.596	-38.9057	-42.8834	-237.232	-57.8369	-26.8745	-232.242	-40.3317	-2.68066	-242.064	6.87797	-9.55334	-243.249	5.66925	19.8381	-210.363	10.5805	4.96906	
51	0.425	-179.587	-16.8447	14.3797	-160.859	-26.2847	-7.33055	-145.601	-32.2989	-29.8701	-128.095	-37.7757	-48.7412	-195.411	-18.8431	-61.6284	-190.448	-50.1869	-56.6795	-192.841	-40.9777	-23.4675	-215.096	-25.9447	-60.8436	-206.204	-55.3266	-52.1598	-212.979	-32.2979	-14.7388	-229.788	-32.1326	-53.1869	-222.258	-58.4351	-36.7462	-223.007	-41.5214	-9.11882	-249.976	-38.2399	-42.7947	-234.09	-56.7362	-25.213	-231.541	-37.0702	-5.123	-240.46	5.74368	-11.4219	-244.612	2.89608	20.6446	-208.087	10.7328	4.34871	
52	0.433333	-183.282	-16.0902	10.8435	-165.284	-26.2351	-7.4148	-141.228	-30.7435	-33.9598	-129.502	-38.4333	-48.8405	-197.875	-18.8491	-61.1121	-192.355	-50.9782	-57.6243	-194.61	-41.7722	-24.4367	-216.463	-30.5448	-63.0535	-206.447	-56.6938	-50.7326	-207.49	-33.7059	-15.9514	-234.951	-33.3547	-51.3989	-222.847	-58.936	-37.4132	-221.88	-40.4108	-8.48908	-248.661	-40.2781	-42.4411	-233.735	-56.7696	-24.5163	-234.34	-35.7822	-0.316114	-240.61	3.80639	-12.8317	-245.698	3.4414	22.8193	-208.53	10.0739	2.16298	
53	0.441667	-180.657	-17.1707	13.1477	-161.54	-25.8105	-12.0238	-140.814	-32.217	-32.8963	-130.89	-39.856	-47.5306	-196.876	-19.1345	-61.1222	-190.68	-51.9646	-56.2993	-190.771	-44.4356	-25.726	-211.904	-30.2616	-62.6649	-206.753	-57.9032	-46.6653	-210.177	-34.1569	-15.7214	-228.898	-34.4961	-53.2153	-224.31	-59.3795	-37.9338	-218.889	-44.0058	-9.59099	-245.757	-38.6296	-43.5649	-231.716	-56.7919	-26.3474	-231.606	-38.5661	-2.43262	-243.967	5.0242	-9.28243	-243.437	3.46166	20.3844	-207.116	9.69021	1.71514	
54	0.45	-179.499	-15.9373	8.16964	-163.079	-26.1439	-10.2751	-141.193	-32.2595	-32.0279	-130.34	-40.0627	-47.4546	-196.824	-20.4145	-61.9109	-190.45	-53.7149	-53.6829	-191.254	-43.8954	-24.8246	-217.025	-29.7268	-62.022	-206.457	-57.0107	-45.9419	-208.806	-32.9363	-15.1248	-233.579	-35.1456	-51.7588	-225.752	-60.1535	-34.3775	-219.26	-42.2972	-9.6111	-244.854	-41.8243	-43.5567	-232.603	-57.46	-25.5511	-232.037	-36.7474	-4.40002	-243.177	4.84592	-11.9184	-244.382	0.446329	21.1566	-207.227	7.35295	2.6336	
55	0.458333	-181.427	-17.4007	9.2899	-160.352	-26.6242	-12.3366	-143.821	-33.1807	-32.4847	-124.957	-39.609	-47.0438	-197.446	-19.0927	-60.7434	-191.494	-52.1385	-55.2205	-192.451	-42.8441	-23.9087	-213.721	-28.9098	-61.7881	-204.695	-57.9844	-46.6085	-210.343	-37.2809	-15.8214	-230.215	-32.1853	-52.0857	-223.4	-60.5937	-33.011	-219.326	-42.2399	-8.5753	-246.585	-41.138	-43.7145	-232.298	-57.7591	-27.8527	-234.875	-35.3398	-1.82686	-239.127	3.79605	-11.1911	-239.808	2.25489	18.9778	-208.027	9.00455	5.7071	
56	0.466667	-178.935	-16.4038	8.49833	-158.812	-26.036	-10.6571	-139.454	-32.2299	-31.2697	-125.63	-39.5792	-43.9501	-193.987	-20.8623	-61.9437	-188.067	-51.7339	-55.1874	-189.011	-43.8735	-24.4304	-212.876	-30.3814	-62.5236	-207.105	-57.6423	-45.1686	-211.961	-33.8704	-14.8676	-230.317	-32.4913	-51.2296	-223.339	-59.7788	-33.0936	-217.12	-39.6542	-8.24529	-245.472	-36.6253	-42.5761	-232.904	-57.8887	-28.6955	-234.306	-37.9822	-1.85472	-242.552	4.62198	-14.6627	-242.846	2.99343	22.1095	-205.577	7.39553	1.99245	
57	0.475	-181.963	-17.8612	12.9742	-163.772	-26.7204	-8.46194	-145.177	-33.5494	-33.1651	-130.592	-40.0745	-46.4523	-194.085	-23.5887	-61.4151	-191.815	-52.5991	-53.6073	-191.783	-41.5992	-22.7949	-215.128	-30.2797	-61.8389	-208.275	-57.8059	-49.286	-211.385	-33.2471	-14.453	-229.189	-36.9785	-52.4755	-221.398	-60.6481	-34.6849	-218.533	-43.4974	-8.8704	-246.941	-39.1832	-42.1779	-234.691	-59.3819	-23.7733	-234.382	-40.9337	0.165609	-242.708	2.00076	-11.1074	-239.16	3.08098	20.8058	-208.477	7.64544	5.31263	
58	0.483333	-178.828	-17.3317	14.5373	-164.409	-27.2555	-8.58422	-145.183	-32.9156	-28.0199	-130.095	-39.4584	-46.6382	-196.021	-20.4588	-59.446	-191.987	-52.0669	-55.0027	-193.852	-40.2388	-20.6747	-216.738	-27.9879	-59.4475	-208.133	-57.4153	-44.0948	-210.076	-33.4083	-13.2772	-232.451	-33.7696	-50.6987	-224.017	-59.9272	-33.6505	-219.318	-43.6724	-8.30411	-248.197	-40.0507	-41.6908	-234.179	-58.3298	-26.2	-233.813	-38.1496	-0.134607	-239.088	3.77101	-12.7352	-242.1	1.57589	22.7516	-209.934	8.06658	4.51211	
59	0.491667	-178.879	-18.0141	15.7482	-164.298	-27.8673	-8.22626	-145.765	-33.5909	-28.7023	-132.709	-40.5204	-48.1918	-194.514	-23.9752	-61.3991	-187.953	-52.9218	-51.265	-192.657	-43.8676	-23.3669	-217.41	-31.031	-60.7325	-207.845	-57.7999	-48.0438	-212.652	-36.515	-14.7151	-232.494	-36.9936	-51.0617	-222.02	-59.5389	-32.7434	-220.483	-38.7837	-5.5461	-249.2	-38.334	-39.3666	-234.722	-58.1059	-21.3709	-234.013	-39.499	-2.42224	-244.702	2.86034	-7.62096	-244.246	2.57225	22.7294	-206.499	8.43802	5.32238	
60	0.5	-178.964	-17.2025	15.5401	-165.052	-26.742	-7.80728	-143.184	-32.8094	-32.0952	-133.208	-38.8091	-47.6668	-197.088	-19.4977	-58.0666	-192.376	-52.6625	-55.0068	-194.984	-41.0546	-20.6118	-213.585	-28.8365	-60.6327	-209.124	-57.1898	-48.9632	-208.05	-33.7443	-12.6801	-233.05	-35.7087	-50.907	-225.767	-60.1318	-33.0846	-219.307	-42.158	-7.80416	-247.053	-38.485	-39.9613	-236.692	-58.8636	-23.5877	-234.468	-41.4702	1.11267	-241.232	3.60852	-11.9602	-241.325	2.02803	24.2949	-211.601	6.05935	5.37941	
61	0.508333	-178.508	-17.6711	13.9217	-162.428	-27.5294	-7.24204	-142.938	-33.5671	-27.7754	-128.387	-39.4006	-46.5282	-199.532	-19.9531	-58.6304	-193.826	-53.3456	-54.2569	-191.26	-42.0411	-21.8076	-214.728	-30.8086	-60.6755	-210.246	-57.5219	-45.1954	-209.846	-34.1454	-13.5956	-236.083	-35.5028	-49.4985	-224.683	-60.114	-34.1538	-222.835	-40.1532	-6.13216	-249.755	-41.9417	-40.9506	-235.5	-58.6744	-22.9427	-232.998	-39.1966	-1.66695	-243.017	2.84213	-12.3016	-241.98	1.49197	20.6838	-206.402	8.67132	7.27574	
62	0.516667	-179.433	-18.0813	15.175	-162.34	-27.1095	-10.0038	-145.603	-33.388	-26.9361	-130.184	-38.7389	-47.645	-197.225	-21.7174	-60.9445	-191.645	-52.3555	-56.4886	-194.976	-40.9596	-22.3708	-214.912	-28.2161	-60.4547	-206.955	-57.2903	-46.1151	-212.273	-36.3971	-14.4465	-234.251	-36.452	-51.1596	-223.434	-60.2523	-37.3188	-221.027	-40.0327	-7.33674	-248.819	-39.5167	-41.2972	-236.011	-58.9203	-24.5041	-233.712	-39.2268	0.594941	-240.595	4.91842	-7.36405	-239.685	1.70687	21.8409	-208.172	7.22401	6.21344	
63	0.525	-180.498	-17.2779	14.4272	-162.688	-25.9782	-7.81147	-145.604	-31.7961	-28.3133	-132.688	-38.9823	-48.6191	-195.717	-18.8268	-60.3349	-190.703	-50.8796	-56.3538	-191.905	-41.1002	-23.9107	-215.248	-28.0764	-62.173	-207.178	-55.6951	-51.6355	-207.732	-35.5393	-16.4325	-233.046	-31.528	-51.3164	-222.584	-59.1311	-38.4603	-221.275	-43.086	-9.65341	-247.227	-35.238	-41.8889	-236.455	-59.1608	-27.5227	-229.78	-39.5571	-3.33292	-238.918	4.72219	-8.62828	-245.073	3.16653	23.9503	-207.386	9.88491	4.63637	
64	0.533333	-182.636	-15.6693	12.9833	-162.72	-26.9481	-5.61134	-144.043	-33.1614	-33.5581	-140.936	-43.2838	-52.4492	-196.427	-17.424	-62.8959	-189.881	-49.1072	-59.6175	-188.594	-43.72	-29.2679	-213.057	-23.7384	-64.2897	-208.168	-54.8606	-53.463	-210.07	-36.9744	-18.5515	-234.656	-32.817	-54.6524	-224.687	-59.1058	-42.7775	-218.774	-43.2945	-12.6666	-245.625	-35.8505	-42.5988	-234.574	-58.9799	-30.2199	-233.639	-44.2099	-3.26115	-241.225	5.00092	-8.55143	-242.599	2.16205	22.8275	-207.407	7.95778	5.74915	
65	0.541667	-181.306	-17.6723	13.2137	-163.404	-29.2163	-13.1987	-153.747	-40.7559	-33.8079	-158.099	-51.2336	-58.8525	-194.807	-10.8736	-60.2638	-191.245	-44.9102	-65.6476	-191.062	-43.6801	-31.1922	-213.069	-20.2505	-66.0673	-211.476	-52.325	-60.507	-212.454	-43.4048	-24.8488	-230.217	-29.5698	-56.0394	-224.446	-57.3558	-45.6353	-221.283	-45.1142	-15.5665	-245.661	-36.266	-45.1141	-238.617	-58.9942	-33.0861	-228.504	-44.02	-7.8634	-239.796	4.45069	-5.93108	-244.221	4.81345	20.9307	-209.411	9.19582	7.3389	
66	0.55	-178.609	-19.3502	13.0602	-162.18	-33.0402	-12.2451	-162.396	-45.6583	-41.1566	-177.985	-56.8128	-62.1232	-192.19	-8.03369	-59.6846	-188.288	-40.6339	-69.7529	-188.459	-42.3813	-35.2346	-214.37	-16.8687	-67.3579	-206.916	-47.4009	-68.7484	-209.915	-41.1201	-26.6736	-231.273	-26.2344	-57.3321	-228.08	-55.5035	-50.645	-220.04	-47.3325	-20.5021	-249.195	-29.7622	-44.4903	-237.384	-54.9757	-39.6669	-234.336	-46.3429	-10.284	-237.188	7.27852	-5.21929	-241.251	3.62389	21.6585	-206.198	10.0852	8.59367	
67	0.558333	-177.424	-17.605	12.4709	-164.335	-33.3549	-13.8776	-166.673	-45.6117	-45.1067	-193.216	-51.9434	-58.3358	-193.625	-5.33331	-60.1513	-186.977	-35.3847	-70.5202	-186.807	-38.9417	-36.688	-213.39	-12.5745	-65.749	-208.174	-44.3198	-67.0678	-210.118	-39.7624	-29.3786	-230.066	-20.796	-58.4161	-224.815	-50.5187	-51.3622	-218.991	-40.4934	-21.8981	-247.033	-28.8261	-49.2003	-237.019	-52.5927	-40.6546	-231.572	-39.3038	-13.2983	-237.557	10.6142	-6.33503	-239.027	5.26892	20.3787	-205.266	11.1572	7.86699	
